<svg xmlns="http://www.w3.org/2000/svg" viewBox="0 0 121 19"><defs><style>.cls-1{fill:#848b99;}.cls-2{fill:#9aa1ad;}.cls-3{fill:#5c5c5c;}.cls-4{font-size:11px;fill:#ededed;font-family:Roboto-Regular, Roboto;letter-spacing:0.02em;}.cls-5{letter-spacing:0.01em;}</style></defs><g id="Layer_27" data-name="Layer 27"><rect class="cls-1" x="1.5" y="1.5" width="118" height="16" rx="1.5"/><path class="cls-2" d="M118,2a1,1,0,0,1,1,1V16a1,1,0,0,1-1,1H3a1,1,0,0,1-1-1V3A1,1,0,0,1,3,2H118m0-1H3A2,2,0,0,0,1,3V16a2,2,0,0,0,2,2H118a2,2,0,0,0,2-2V3a2,2,0,0,0-2-2Z"/><path class="cls-3" d="M118,1a2,2,0,0,1,2,2V16a2,2,0,0,1-2,2H3a2,2,0,0,1-2-2V3A2,2,0,0,1,3,1H118m0-1H3A3,3,0,0,0,0,3V16a3,3,0,0,0,3,3H118a3,3,0,0,0,3-3V3a3,3,0,0,0-3-3Z"/><text class="cls-4" transform="translate(11 13)">Gene<tspan class="cls-5" x="26.32" y="0">r</tspan><tspan x="30.1" y="0">ate Schedule</tspan></text></g></svg>